<svg xmlns="http://www.w3.org/2000/svg" width="134.47" height="46.75" viewBox="0 0 134.47 46.75">
  <g id="Слой_2" data-name="Слой 2">
    <g id="Слой_1-2" data-name="Слой 1">
      <rect class="cls-1" x="3.06" y="3.5" width="8" height="35.75"/>
      <rect class="cls-1" x="6.06" y="-2.56" width="2" height="14.13" transform="translate(11.56 -2.56) rotate(90)"/>
      <rect class="cls-1" x="6.06" y="32.19" width="2" height="14.13" transform="translate(46.31 32.19) rotate(90)"/>
      <rect class="cls-1" x="23.97" width="2" height="46.75"/>
      <rect class="cls-1" x="36.7" y="13.83" width="4.13" height="17.13"/>
      <rect class="cls-1" x="35.25" y="12.73" width="7.03" height="1.34"/>
      <rect class="cls-1" x="35.25" y="29.61" width="7.03" height="1.34"/>
      <rect class="cls-1" x="56.63" y="12.73" width="5.03" height="1.34"/>
      <rect class="cls-1" x="45.69" y="29.61" width="5.03" height="1.34"/>
      <rect class="cls-1" x="47.34" y="12.73" width="1.38" height="18.22"/>
      <rect class="cls-1" x="58.45" y="12.73" width="1.38" height="18.22"/>
      <polygon class="cls-1" points="45.69 12.73 45.69 13.83 47.34 13.83 58.45 30.95 59.83 30.95 59.83 24.88 50.72 12.73 45.69 12.73"/>
      <rect class="cls-1" x="66.48" y="13.83" width="4.13" height="17.13"/>
      <rect class="cls-1" x="65.39" y="12.73" width="6.31" height="1.34"/>
      <rect class="cls-1" x="65.39" y="29.61" width="6.31" height="1.34"/>
      <rect class="cls-1" x="74.44" y="12.73" width="5.03" height="1.34"/>
      <rect class="cls-1" x="71.53" y="11.5" width="1.37" height="15.74" transform="translate(30.79 -42.87) rotate(41.33)"/>
      <polygon class="cls-1" points="80.77 30.95 80.77 29.86 79.11 29.86 72 19.73 69.63 22.81 75.73 30.95 80.77 30.95"/>
      <path class="cls-1" d="M90.56,12.73c-4.21,0-7.63,4.28-7.63,9.55s3.42,9.55,7.63,9.55,7.62-4.28,7.62-9.55S94.77,12.73,90.56,12.73Zm0,17.56c-1.84,0-3.33-3.59-3.33-8s1.49-8,3.33-8,3.32,3.59,3.32,8S92.39,30.29,90.56,30.29Z"/>
      <path class="cls-1" d="M115.28,26.08H114c.08,1.09-1.23,4.21-3.67,3.79-1.83-.32-3.14-4.28-3.15-7.59s1.19-7.29,3.15-7.59a4.17,4.17,0,0,1,2.2.57,4.86,4.86,0,0,1,1.18,1v2.23H115V12.25h-1.35V14a6,6,0,0,0-3.38-.78c-3.5.26-7.24,4.46-7.23,9.06,0,5.07,4.58,8.87,7.23,9a6.22,6.22,0,0,0,2.2-.29C115.64,29.92,115.28,26.08,115.28,26.08Z"/>
      <rect class="cls-1" x="121.27" y="13.81" width="3.61" height="17.13"/>
      <rect class="cls-1" x="120" y="12.72" width="6.16" height="1.34"/>
      <rect class="cls-1" x="120" y="29.59" width="6.16" height="1.34"/>
      <rect class="cls-1" x="129.58" y="13.83" width="3.61" height="17.13"/>
      <rect class="cls-1" x="128.31" y="12.73" width="6.16" height="1.34"/>
      <rect class="cls-1" x="128.31" y="29.61" width="6.16" height="1.34"/>
      <rect class="cls-1" x="126.49" y="18.3" width="1.38" height="7.09" transform="translate(149.02 -105.33) rotate(90)"/>
    </g>
  </g>
</svg>
