<svg xmlns="http://www.w3.org/2000/svg" xmlns:xlink="http://www.w3.org/1999/xlink" width="0" height="0" style="position:absolute">
	
		<symbol id="checkmark" viewBox="">
			<path d="M13.76 0C8.9 2.19 5.81 8.77 5.81 8.77L3.92 5.53 0 7.62A16.24 16.24 0 0 1 6.05 12c1.42-2.3 5.81-7 8-7.41-.88-1.67-.41-3.02-.29-4.59z" fill-rule="evenodd" data-name="Фигура 2"></path>
		</symbol>
	
		<symbol id="logo" viewBox="">
			<g data-name="Слой 1"><path class="cls-1" d="M3.06 3.5h8v35.75h-8z"></path><path class="cls-1" d="M14.12 3.5v2H-.01v-2zm0 34.75v2H-.01v-2zM23.97 0h2v46.75h-2zM36.7 13.83h4.13v17.13H36.7z"></path><path class="cls-1" d="M35.25 12.73h7.03v1.34h-7.03zm0 16.88h7.03v1.34h-7.03zm21.38-16.88h5.03v1.34h-5.03zM45.69 29.61h5.03v1.34h-5.03z"></path><path class="cls-1" d="M47.34 12.73h1.38v18.22h-1.38zm11.11 0h1.38v18.22h-1.38z"></path><path class="cls-1" d="M45.69 12.73v1.1h1.65l11.11 17.12h1.38v-6.07l-9.11-12.15h-5.03zm20.79 1.1h4.13v17.13h-4.13z"></path><path class="cls-1" d="M65.39 12.73h6.31v1.34h-6.31zm0 16.88h6.31v1.34h-6.31zm9.05-16.88h5.03v1.34h-5.03z"></path><path class="cls-1" d="M76.909 13.004l1.028.904-10.394 11.82-1.029-.905z"></path><path class="cls-1" d="M80.77 30.95v-1.09h-1.66L72 19.73l-2.37 3.08 6.1 8.14h5.04zm9.79-18.22c-4.21 0-7.63 4.28-7.63 9.55s3.42 9.55 7.63 9.55 7.62-4.28 7.62-9.55-3.41-9.55-7.62-9.55zm0 17.56c-1.84 0-3.33-3.59-3.33-8s1.49-8 3.33-8 3.32 3.59 3.32 8-1.49 8-3.32 8zm24.72-4.21H114c.08 1.09-1.23 4.21-3.67 3.79-1.83-.32-3.14-4.28-3.15-7.59s1.19-7.29 3.15-7.59a4.17 4.17 0 0 1 2.2.57 4.86 4.86 0 0 1 1.18 1v2.23H115v-6.24h-1.35V14a6 6 0 0 0-3.38-.78c-3.5.26-7.24 4.46-7.23 9.06 0 5.07 4.58 8.87 7.23 9a6.22 6.22 0 0 0 2.2-.29c3.17-1.07 2.81-4.91 2.81-4.91zm5.99-12.27h3.61v17.13h-3.61z"></path><path class="cls-1" d="M120 12.72h6.16v1.34H120zm0 16.87h6.16v1.34H120zm9.58-15.76h3.61v17.13h-3.61z"></path><path class="cls-1" d="M128.31 12.73h6.16v1.34h-6.16zm0 16.88h6.16v1.34h-6.16zm2.41-8.45v1.38h-7.09v-1.38z"></path></g>
		</symbol>
	
		<symbol id="scope" viewBox="">
			<g data-name="Слой 2"><path class="cls-1 cls-2" d="M6.5 1A5.5 5.5 0 1 1 1 6.5 5.51 5.51 0 0 1 6.5 1m0-1A6.5 6.5 0 1 0 13 6.5 6.5 6.5 0 0 0 6.5 0z" data-name="Эллипс 1"></path><path class="cls-1 cls-3" d="M11.77 9l-.77.92L20.23 17l.77-.92L11.77 9z" data-name="Фигура 1"></path></g>
		</symbol>
	
</svg>
